<svg xmlns="http://www.w3.org/2000/svg" viewBox="0 0 459 459"><defs><style>.cls-1{fill:#fff;}</style></defs><g id="Calque_2" data-name="Calque 2"><g id="Calque_1-2" data-name="Calque 1"><rect width="459" height="459" rx="18"/><path class="cls-1" d="M108.54,255.06l-18-23.26L79,242.1v13H64.48V203.94H79V227.7l27.22-23.76h17.93l-22.54,19.44-.14.07,24,31.61Z"/><path class="cls-1" d="M147.85,244.84h37.59v10.22H133.31V203.94h51.62v10.22H147.85v10.23h35.86v9.5H147.85Z"/><path class="cls-1" d="M196.67,255.06V203.94h14.54v39.74h34.63v11.38Z"/><path class="cls-1" d="M254.41,255.06V203.94H269v39.74h34.63v11.38Z"/><path class="cls-1" d="M326.7,255.06H312.15V203.94H326.7Z"/><path class="cls-1" d="M365.51,256.86a51.56,51.56,0,0,1-19.73-3.49q-8.5-3.5-12.46-9.61l10.37-7.28a22.53,22.53,0,0,0,9.14,7.38,31.59,31.59,0,0,0,13.4,2.7q13.61,0,13.6-6A3.78,3.78,0,0,0,378,237.1a16.56,16.56,0,0,0-6.37-1.62l-15.7-1.73q-9.44-1-14-4.72t-4.58-10.69q0-7.64,7.2-11.92t20.24-4.28q19.93,0,29.37,10.58L385,220.43q-6-8.15-20.88-8.14-12.18,0-12.17,5.4a3.63,3.63,0,0,0,1.87,3.39c1.25.72,3.5,1.24,6.77,1.58l14,1.44q10.65,1.08,15.3,4.54t4.64,10.51q0,8.49-7.56,13.1T365.51,256.86Z"/></g></g></svg>