<svg xmlns="http://www.w3.org/2000/svg" viewBox="0 0 330.04 54.72"><defs><style>.cls-1{fill:#fff;}</style></defs><g id="Calque_2" data-name="Calque 2"><g id="Calque_1-2" data-name="Calque 1"><path class="cls-1" d="M44.06,52.92l-18-23.26L14.54,40v13H0V1.8H14.54V25.56L41.76,1.8H59.69L37.15,21.24l-.14.07L61,52.92Z"/><path class="cls-1" d="M83.38,42.7H121V52.92H68.83V1.8h51.63V12H83.38V22.25h35.85v9.5H83.38Z"/><path class="cls-1" d="M132.19,52.92V1.8h14.54V41.54h34.64V52.92Z"/><path class="cls-1" d="M189.93,52.92V1.8h14.55V41.54h34.63V52.92Z"/><path class="cls-1" d="M262.22,52.92H247.68V1.8h14.54Z"/><path class="cls-1" d="M301,54.72a51.56,51.56,0,0,1-19.73-3.49q-8.49-3.49-12.46-9.61l10.37-7.28a22.49,22.49,0,0,0,9.15,7.38,31.51,31.51,0,0,0,13.39,2.7q13.61,0,13.61-6A3.79,3.79,0,0,0,313.52,35c-1.22-.75-3.35-1.29-6.37-1.62l-15.7-1.73q-9.43-1-14-4.72T272.88,16.2q0-7.63,7.2-11.92T300.31,0q19.94,0,29.37,10.58l-9.21,7.71q-6-8.14-20.88-8.14-12.16,0-12.17,5.4a3.63,3.63,0,0,0,1.87,3.39c1.25.72,3.5,1.24,6.77,1.58l14,1.44Q320.75,23,325.4,26.5T330,37q0,8.49-7.56,13.1T301,54.72Z"/></g></g></svg>